<svg id="svg" version="1.1" xmlns="http://www.w3.org/2000/svg" xmlns:xlink="http://www.w3.org/1999/xlink" width="400" height="400" viewBox="0, 0, 400,400"><g id="svgg"><path id="path0" d="M291.218 88.811 C 287.399 89.616,280.769 94.160,280.818 95.940 C 280.828 96.303,281.824 97.671,283.031 98.979 L 285.226 101.359 287.025 99.481 C 292.992 93.255,302.573 94.516,302.507 101.520 C 302.472 105.247,300.932 107.269,294.800 111.637 C 283.192 119.906,281.611 121.998,281.276 129.531 C 281.131 132.789,281.211 133.761,281.646 134.037 C 282.347 134.481,309.619 134.502,310.318 134.059 C 310.688 133.824,310.802 132.827,310.718 130.565 L 310.600 127.400 300.500 127.293 L 290.400 127.186 290.400 125.931 C 290.400 123.972,291.961 122.352,297.910 118.139 C 308.221 110.836,311.006 107.190,310.994 101.008 C 310.977 91.836,302.289 86.477,291.218 88.811 M236.714 89.020 C 236.327 89.406,251.236 133.341,251.947 133.912 C 252.404 134.278,253.941 134.392,257.381 134.312 L 262.177 134.200 265.005 125.800 C 266.560 121.180,269.941 111.145,272.516 103.500 C 275.092 95.855,277.200 89.420,277.200 89.200 C 277.200 88.960,275.609 88.800,273.229 88.800 C 269.233 88.800,268.003 89.207,267.999 90.529 C 267.998 90.788,267.118 93.700,266.044 97.000 C 264.969 100.300,262.802 107.050,261.227 112.000 C 257.999 122.148,257.760 122.800,257.258 122.800 C 256.508 122.800,255.996 121.493,252.410 110.400 C 250.382 104.130,247.976 96.750,247.062 94.000 L 245.400 89.000 241.179 88.887 C 238.858 88.825,236.849 88.885,236.714 89.020 M150.600 128.626 C 143.684 129.644,142.162 129.965,136.800 131.537 C 106.908 140.302,90.373 166.912,90.409 206.200 C 90.442 243.359,106.567 270.413,134.000 279.337 C 137.773 280.564,141.488 281.561,143.800 281.967 C 145.120 282.199,147.992 282.752,150.182 283.195 C 156.072 284.386,170.799 284.092,177.621 282.648 C 196.481 278.653,208.458 269.988,216.666 254.400 C 220.123 247.835,222.347 241.238,221.312 240.621 C 220.923 240.389,218.265 238.973,215.403 237.473 C 212.541 235.973,207.984 233.578,205.276 232.150 C 198.460 228.555,198.223 228.595,196.572 233.600 C 192.272 246.639,184.749 253.908,172.399 256.954 C 150.354 262.393,131.279 252.830,124.610 232.997 C 119.464 217.694,119.563 192.965,124.829 177.947 C 130.552 161.626,142.865 153.381,161.400 153.458 C 178.500 153.529,188.473 159.231,194.850 172.582 C 195.538 174.022,196.334 175.200,196.618 175.200 C 196.902 175.200,197.379 175.294,197.677 175.408 C 197.976 175.523,201.995 173.331,206.610 170.537 C 211.224 167.743,216.056 164.820,217.346 164.041 C 220.356 162.225,220.349 162.262,218.487 158.288 C 212.259 145.000,201.288 135.846,186.400 131.520 C 175.258 128.282,160.851 127.117,150.600 128.626 " stroke="none" fill="#fafafa" fill-rule="evenodd"></path><path id="path1" d="M0.000 200.000 L 0.000 400.000 200.000 400.000 L 400.000 400.000 400.000 200.000 L 400.000 0.000 200.000 0.000 L 0.000 0.000 0.000 200.000 M303.261 88.776 C 309.480 91.120,312.749 96.862,311.570 103.368 C 310.582 108.811,307.713 112.101,298.000 118.922 C 292.804 122.572,291.554 123.750,291.020 125.500 L 290.746 126.400 300.926 126.400 L 311.107 126.400 311.348 127.300 C 311.824 129.077,311.623 133.883,311.053 134.356 C 310.662 134.681,306.257 134.780,295.553 134.705 L 280.600 134.600 280.638 130.200 C 280.706 122.260,282.059 120.246,292.588 112.404 C 300.064 106.836,300.488 106.446,301.385 104.298 C 304.734 96.283,293.946 92.977,287.451 100.028 C 285.172 102.502,285.352 102.530,282.441 99.246 C 279.459 95.883,279.460 95.907,282.300 93.113 C 287.519 87.979,296.316 86.159,303.261 88.776 M245.898 88.900 C 246.200 89.281,253.355 110.838,256.466 120.737 C 257.088 122.715,257.092 122.706,262.612 105.400 C 265.418 96.600,267.891 89.175,268.106 88.900 C 268.599 88.271,277.424 88.191,277.808 88.813 C 278.066 89.230,263.388 133.378,262.684 134.300 C 262.089 135.078,251.862 134.998,251.208 134.210 C 250.563 133.433,235.729 89.412,235.920 88.841 C 236.137 88.188,245.378 88.243,245.898 88.900 M175.978 128.441 C 198.054 131.927,215.544 144.863,220.540 161.400 C 220.941 162.726,220.661 162.918,201.134 174.687 C 197.427 176.921,196.217 176.588,194.200 172.776 C 186.702 158.606,176.903 153.425,158.915 154.119 C 133.667 155.093,121.800 171.617,121.800 205.800 C 121.800 240.797,134.281 257.389,160.600 257.379 C 179.707 257.373,190.278 250.150,195.986 233.200 C 198.055 227.056,196.508 226.788,215.000 236.494 C 223.702 241.061,223.089 240.304,221.592 244.628 C 213.536 267.912,196.882 281.318,172.716 283.973 C 134.740 288.146,104.976 270.961,94.478 238.800 C 87.766 218.237,88.037 190.820,95.150 170.895 C 106.556 138.942,137.973 122.441,175.978 128.441 " stroke="none" fill="#040404" fill-rule="evenodd"></path><path id="path2" d="M291.675 88.340 C 291.167 88.483,293.111 88.600,295.996 88.600 C 298.880 88.600,300.827 88.483,300.320 88.340 C 299.814 88.197,297.870 88.080,296.000 88.080 C 294.130 88.080,292.184 88.197,291.675 88.340 M245.524 89.400 C 245.726 89.840,245.992 90.470,246.114 90.800 C 246.307 91.318,246.341 91.315,246.368 90.776 C 246.386 90.434,246.120 89.804,245.778 89.376 C 245.166 88.612,245.162 88.613,245.524 89.400 M305.000 90.262 C 306.700 91.154,309.065 93.508,309.629 94.870 C 309.892 95.505,310.187 95.947,310.283 95.850 C 311.128 95.005,305.728 89.537,304.126 89.616 C 303.947 89.625,304.340 89.915,305.000 90.262 M284.560 91.548 C 283.702 92.180,282.460 93.301,281.800 94.039 C 280.949 94.991,281.181 94.860,282.600 93.589 C 283.700 92.604,285.050 91.493,285.600 91.120 C 286.150 90.747,286.492 90.433,286.360 90.421 C 286.228 90.409,285.418 90.917,284.560 91.548 M280.442 96.000 C 280.420 96.588,283.369 100.000,283.898 100.000 C 284.046 100.000,283.431 99.235,282.531 98.300 C 281.632 97.365,280.799 96.330,280.680 96.000 C 280.487 95.467,280.461 95.467,280.442 96.000 M294.291 95.889 C 295.001 95.977,296.261 95.979,297.091 95.892 C 297.921 95.805,297.340 95.733,295.800 95.731 C 294.260 95.729,293.581 95.800,294.291 95.889 M299.877 96.781 C 300.579 97.210,301.427 98.064,301.761 98.680 C 302.095 99.296,302.375 99.557,302.384 99.260 C 302.405 98.566,299.849 96.000,299.140 96.001 C 298.843 96.002,299.175 96.353,299.877 96.781 M310.644 97.400 C 310.973 98.871,311.202 99.190,311.194 98.167 C 311.191 97.745,311.005 97.130,310.782 96.800 C 310.485 96.362,310.448 96.524,310.644 97.400 M265.000 98.800 C 264.850 99.273,264.817 99.750,264.927 99.860 C 265.037 99.970,265.250 99.673,265.400 99.200 C 265.550 98.727,265.583 98.250,265.473 98.140 C 265.363 98.030,265.150 98.327,265.000 98.800 M286.111 100.467 C 285.357 101.221,285.149 101.263,284.522 100.789 C 283.831 100.268,283.831 100.277,284.503 101.010 C 285.192 101.762,285.226 101.756,286.294 100.688 C 286.892 100.090,287.291 99.600,287.180 99.600 C 287.069 99.600,286.588 99.990,286.111 100.467 M240.812 103.200 C 240.812 103.530,240.987 104.070,241.200 104.400 C 241.545 104.933,241.588 104.933,241.588 104.400 C 241.588 104.070,241.413 103.530,241.200 103.200 C 240.855 102.667,240.812 102.667,240.812 103.200 M301.857 104.116 C 301.704 104.726,300.683 106.154,299.589 107.289 C 297.092 109.880,296.981 110.369,299.432 107.983 C 301.382 106.085,302.549 104.247,302.292 103.476 C 302.206 103.218,302.010 103.505,301.857 104.116 M310.846 103.667 C 310.821 104.034,310.696 104.664,310.570 105.067 C 310.352 105.762,310.363 105.763,310.797 105.087 C 311.048 104.696,311.173 104.066,311.073 103.687 C 310.911 103.068,310.888 103.066,310.846 103.667 M241.612 105.600 C 241.612 105.930,241.787 106.470,242.000 106.800 C 242.345 107.333,242.388 107.333,242.388 106.800 C 242.388 106.470,242.213 105.930,242.000 105.600 C 241.655 105.067,241.612 105.067,241.612 105.600 M309.462 107.440 C 308.471 109.516,305.083 112.943,301.300 115.694 C 297.450 118.493,296.851 119.250,300.483 116.726 C 305.179 113.461,311.173 107.040,310.320 106.187 C 310.223 106.090,309.837 106.653,309.462 107.440 M261.800 108.800 C 261.650 109.273,261.617 109.750,261.727 109.860 C 261.837 109.970,262.050 109.673,262.200 109.200 C 262.350 108.727,262.383 108.250,262.273 108.140 C 262.163 108.030,261.950 108.327,261.800 108.800 M295.100 111.014 C 294.055 111.780,293.200 112.496,293.200 112.603 C 293.200 112.711,294.100 112.152,295.200 111.362 C 296.909 110.134,297.523 109.568,297.100 109.610 C 297.045 109.615,296.145 110.247,295.100 111.014 M289.985 114.832 L 288.600 116.063 289.888 115.213 C 291.030 114.459,291.893 113.600,291.508 113.600 C 291.432 113.600,290.747 114.154,289.985 114.832 M267.400 118.400 C 267.250 118.873,267.217 119.350,267.327 119.460 C 267.437 119.570,267.650 119.273,267.800 118.800 C 267.950 118.327,267.983 117.850,267.873 117.740 C 267.763 117.630,267.550 117.927,267.400 118.400 M285.151 118.704 C 283.356 120.689,283.027 121.437,284.739 119.641 C 285.661 118.674,286.354 117.820,286.279 117.745 C 286.203 117.670,285.696 118.101,285.151 118.704 M266.600 120.800 C 266.450 121.273,266.417 121.750,266.527 121.860 C 266.637 121.970,266.850 121.673,267.000 121.200 C 267.150 120.727,267.183 120.250,267.073 120.140 C 266.963 120.030,266.750 120.327,266.600 120.800 M292.989 121.831 L 291.000 123.661 293.100 121.968 C 294.984 120.449,295.438 120.000,295.089 120.000 C 295.028 120.000,294.083 120.824,292.989 121.831 M257.836 121.400 C 257.542 122.570,257.006 122.685,256.432 121.700 C 256.208 121.315,256.019 121.203,256.012 121.451 C 256.005 121.699,256.289 122.142,256.643 122.436 C 257.332 123.007,258.400 122.087,258.400 120.924 C 258.400 120.075,258.106 120.323,257.836 121.400 M281.050 126.450 C 280.469 129.353,280.755 134.400,281.500 134.394 C 282.057 134.389,282.086 134.316,281.646 134.037 C 281.210 133.761,281.132 132.779,281.280 129.443 C 281.481 124.922,281.446 124.469,281.050 126.450 M290.400 126.893 C 290.400 127.054,294.945 127.234,300.500 127.293 L 310.600 127.400 310.718 130.565 C 310.802 132.814,310.686 133.836,310.318 134.096 C 309.919 134.377,309.938 134.423,310.400 134.297 C 310.876 134.167,311.000 133.398,311.000 130.567 L 311.000 127.000 300.700 126.800 C 295.034 126.690,290.399 126.732,290.400 126.893 M159.891 127.889 C 160.601 127.977,161.861 127.979,162.691 127.892 C 163.521 127.805,162.940 127.733,161.400 127.731 C 159.860 127.729,159.181 127.800,159.891 127.889 M149.600 128.416 C 148.973 128.626,149.570 128.666,151.200 128.523 C 152.630 128.397,153.875 128.228,153.967 128.147 C 154.295 127.858,150.580 128.086,149.600 128.416 M168.433 128.144 C 168.525 128.223,169.860 128.384,171.400 128.501 C 173.027 128.625,173.781 128.581,173.200 128.397 C 172.211 128.083,168.112 127.866,168.433 128.144 M144.800 129.200 L 143.800 129.520 144.800 129.520 C 145.350 129.520,146.250 129.376,146.800 129.200 L 147.800 128.880 146.800 128.880 C 146.250 128.880,145.350 129.024,144.800 129.200 M176.400 129.200 C 176.950 129.376,177.850 129.520,178.400 129.520 L 179.400 129.520 178.400 129.200 C 177.850 129.024,176.950 128.880,176.400 128.880 L 175.400 128.880 176.400 129.200 M181.000 130.000 C 181.440 130.189,182.070 130.344,182.400 130.344 C 182.778 130.344,182.704 130.217,182.200 130.000 C 181.760 129.811,181.130 129.656,180.800 129.656 C 180.422 129.656,180.496 129.783,181.000 130.000 M123.200 136.836 C 122.536 137.379,122.469 137.515,123.000 137.240 C 124.305 136.566,125.028 136.012,124.600 136.015 C 124.380 136.017,123.750 136.386,123.200 136.836 M203.200 139.288 C 203.200 139.366,204.055 140.133,205.100 140.992 C 206.145 141.851,206.640 142.140,206.200 141.634 C 205.422 140.739,203.200 139.002,203.200 139.288 M115.775 142.100 L 114.600 143.400 115.900 142.225 C 117.112 141.130,117.384 140.800,117.075 140.800 C 117.006 140.800,116.421 141.385,115.775 142.100 M208.800 144.193 C 209.790 145.288,210.645 146.263,210.700 146.359 C 210.755 146.455,210.886 146.447,210.991 146.343 C 211.096 146.238,210.241 145.263,209.091 144.176 L 207.000 142.200 208.800 144.193 M112.706 144.611 C 111.884 145.375,111.354 146.000,111.527 146.000 C 111.701 146.000,112.454 145.370,113.200 144.600 C 114.941 142.803,114.643 142.810,112.706 144.611 M108.000 149.400 C 106.652 151.050,105.639 152.400,105.749 152.400 C 105.859 152.400,107.052 151.050,108.400 149.400 C 109.748 147.750,110.761 146.400,110.651 146.400 C 110.541 146.400,109.348 147.750,108.000 149.400 M214.174 150.800 C 216.073 153.589,216.377 153.857,215.184 151.691 C 214.666 150.750,213.890 149.670,213.459 149.291 C 213.028 148.911,213.350 149.590,214.174 150.800 M158.900 153.494 C 159.945 153.576,161.655 153.576,162.700 153.494 C 163.745 153.412,162.890 153.344,160.800 153.344 C 158.710 153.344,157.855 153.412,158.900 153.494 M152.000 154.000 C 150.656 154.431,152.108 154.431,153.800 154.000 C 154.878 153.726,154.898 153.694,154.000 153.687 C 153.450 153.683,152.550 153.824,152.000 154.000 M168.800 154.000 C 169.350 154.176,170.250 154.320,170.800 154.320 L 171.800 154.320 170.800 154.000 C 170.250 153.824,169.350 153.680,168.800 153.680 L 167.800 153.680 168.800 154.000 M148.600 154.800 L 147.800 155.144 148.600 155.166 C 149.040 155.178,149.670 155.013,150.000 154.800 C 150.795 154.286,149.796 154.286,148.600 154.800 M103.014 155.835 C 102.641 156.404,102.427 156.961,102.539 157.072 C 102.650 157.183,103.029 156.718,103.381 156.037 C 104.159 154.533,103.944 154.415,103.014 155.835 M177.158 156.037 C 178.125 156.466,178.988 156.745,179.075 156.658 C 179.248 156.486,176.165 155.182,175.692 155.228 C 175.531 155.244,176.191 155.608,177.158 156.037 M143.400 156.778 C 142.520 157.195,141.913 157.550,142.051 157.568 C 142.440 157.618,145.200 156.414,145.200 156.195 C 145.200 155.927,145.199 155.927,143.400 156.778 M139.400 158.859 C 136.276 160.802,133.363 163.440,131.371 166.132 C 130.009 167.971,129.929 168.141,131.057 166.800 C 133.555 163.827,136.369 161.272,139.058 159.533 C 141.241 158.121,141.934 157.575,141.500 157.608 C 141.445 157.612,140.500 158.175,139.400 158.859 M100.600 160.000 C 100.259 160.660,100.069 161.200,100.179 161.200 C 100.289 161.200,100.659 160.660,101.000 160.000 C 101.341 159.340,101.531 158.800,101.421 158.800 C 101.311 158.800,100.941 159.340,100.600 160.000 M184.000 159.470 C 184.000 159.687,184.476 160.119,185.057 160.431 C 185.639 160.742,187.286 162.257,188.718 163.798 C 190.150 165.339,190.948 166.060,190.492 165.400 C 189.156 163.465,184.000 158.756,184.000 159.470 M98.981 162.837 C 98.629 163.518,98.412 164.145,98.499 164.232 C 98.586 164.319,98.956 163.762,99.322 162.995 C 100.144 161.270,99.859 161.138,98.981 162.837 M216.900 164.226 C 215.012 165.358,214.577 165.949,216.300 165.041 C 217.509 164.403,219.116 163.231,218.800 163.217 C 218.690 163.212,217.835 163.666,216.900 164.226 M212.200 167.200 C 211.540 167.637,211.180 167.992,211.400 167.988 C 211.801 167.982,213.976 166.423,213.600 166.412 C 213.490 166.408,212.860 166.763,212.200 167.200 M207.896 169.750 C 205.975 170.931,205.438 171.489,207.000 170.681 C 208.254 170.033,209.945 168.826,209.600 168.825 C 209.490 168.825,208.723 169.241,207.896 169.750 M193.882 171.389 C 194.473 172.593,195.023 173.511,195.105 173.429 C 195.284 173.249,193.267 169.200,192.998 169.200 C 192.894 169.200,193.292 170.185,193.882 171.389 M127.800 171.200 C 127.459 171.860,127.269 172.400,127.379 172.400 C 127.489 172.400,127.859 171.860,128.200 171.200 C 128.541 170.540,128.731 170.000,128.621 170.000 C 128.511 170.000,128.141 170.540,127.800 171.200 M203.896 172.150 C 201.975 173.331,201.438 173.889,203.000 173.081 C 204.254 172.433,205.945 171.226,205.600 171.225 C 205.490 171.225,204.723 171.641,203.896 172.150 M195.566 174.651 C 196.219 176.008,200.400 175.946,200.400 174.579 C 200.400 174.469,199.888 174.644,199.261 174.968 C 197.991 175.625,196.479 175.398,195.678 174.431 C 195.231 173.891,195.215 173.923,195.566 174.651 M93.049 178.615 C 92.912 178.973,92.815 179.566,92.834 179.933 C 92.853 180.300,93.027 180.069,93.221 179.420 C 93.598 178.158,93.465 177.533,93.049 178.615 M92.229 182.229 C 92.081 182.815,92.038 183.372,92.132 183.466 C 92.227 183.560,92.424 183.158,92.571 182.571 C 92.719 181.985,92.762 181.428,92.668 181.334 C 92.573 181.240,92.376 181.642,92.229 182.229 M122.600 185.600 C 122.448 186.291,122.414 186.947,122.524 187.057 C 122.634 187.167,122.848 186.691,123.000 186.000 C 123.152 185.309,123.186 184.653,123.076 184.543 C 122.966 184.433,122.752 184.909,122.600 185.600 M91.422 186.622 C 91.272 187.425,91.228 188.162,91.326 188.260 C 91.424 188.357,91.627 187.781,91.778 186.978 C 91.928 186.175,91.972 185.438,91.874 185.340 C 91.776 185.243,91.573 185.819,91.422 186.622 M121.818 190.218 C 121.665 191.239,121.622 192.155,121.722 192.255 C 121.822 192.355,122.029 191.602,122.182 190.582 C 122.335 189.561,122.378 188.645,122.278 188.545 C 122.178 188.445,121.971 189.198,121.818 190.218 M90.592 192.938 C 90.439 194.369,90.393 195.778,90.490 196.070 C 90.587 196.361,90.790 195.268,90.942 193.641 C 91.093 192.014,91.139 190.605,91.043 190.510 C 90.948 190.415,90.745 191.508,90.592 192.938 M121.057 197.259 C 120.736 200.328,120.790 211.851,121.140 214.800 C 121.283 216.010,121.400 212.005,121.400 205.900 C 121.400 199.795,121.381 194.800,121.357 194.800 C 121.333 194.800,121.198 195.906,121.057 197.259 M90.157 206.000 C 90.157 208.970,90.220 210.185,90.297 208.700 C 90.374 207.215,90.374 204.785,90.297 203.300 C 90.220 201.815,90.157 203.030,90.157 206.000 M90.447 217.233 C 90.473 218.205,90.642 219.540,90.821 220.200 C 91.027 220.957,91.065 220.366,90.925 218.600 C 90.671 215.421,90.376 214.576,90.447 217.233 M121.695 220.000 C 121.695 220.550,121.832 221.540,122.000 222.200 C 122.272 223.270,122.305 223.292,122.305 222.400 C 122.305 221.850,122.168 220.860,122.000 220.200 C 121.728 219.130,121.695 219.108,121.695 220.000 M91.287 223.600 C 91.283 224.150,91.424 225.050,91.600 225.600 C 92.031 226.944,92.031 225.492,91.600 223.800 C 91.326 222.722,91.294 222.702,91.287 223.600 M122.468 224.800 C 122.488 225.839,123.118 227.546,123.132 226.600 C 123.138 226.160,122.989 225.440,122.800 225.000 C 122.589 224.510,122.461 224.432,122.468 224.800 M92.068 228.200 C 92.062 228.640,92.211 229.360,92.400 229.800 C 92.838 230.819,92.838 229.768,92.400 228.400 C 92.143 227.596,92.077 227.557,92.068 228.200 M123.256 228.400 C 123.256 228.730,123.411 229.360,123.600 229.800 C 123.817 230.304,123.944 230.378,123.944 230.000 C 123.944 229.670,123.789 229.040,123.600 228.600 C 123.383 228.096,123.256 228.022,123.256 228.400 M197.237 230.465 C 196.995 231.161,196.866 231.800,196.952 231.885 C 197.038 231.971,197.295 231.504,197.523 230.848 C 197.851 229.907,198.220 229.621,199.270 229.492 L 200.600 229.328 199.139 229.264 C 197.836 229.207,197.631 229.336,197.237 230.465 M204.000 231.393 C 204.000 231.500,204.900 232.043,206.000 232.600 C 208.515 233.875,208.621 233.616,206.150 232.234 C 204.227 231.160,204.000 231.071,204.000 231.393 M92.856 232.000 C 92.856 232.330,93.011 232.960,93.200 233.400 C 93.417 233.904,93.544 233.978,93.544 233.600 C 93.544 233.270,93.389 232.640,93.200 232.200 C 92.983 231.696,92.856 231.622,92.856 232.000 M195.000 237.061 C 194.664 237.865,194.482 238.615,194.595 238.728 C 194.708 238.841,194.800 238.835,194.800 238.716 C 194.800 238.596,195.072 237.846,195.405 237.049 C 195.738 236.252,195.921 235.600,195.811 235.600 C 195.701 235.600,195.336 236.258,195.000 237.061 M214.800 236.979 C 214.800 237.089,215.340 237.459,216.000 237.800 C 216.660 238.141,217.200 238.331,217.200 238.221 C 217.200 238.111,216.660 237.741,216.000 237.400 C 215.340 237.059,214.800 236.869,214.800 236.979 M127.560 239.800 C 128.234 241.105,128.788 241.828,128.785 241.400 C 128.783 241.180,128.414 240.550,127.964 240.000 C 127.421 239.336,127.285 239.269,127.560 239.800 M221.307 240.562 C 221.746 240.895,221.924 241.383,221.777 241.849 C 221.552 242.560,221.564 242.562,222.001 241.879 C 222.501 241.099,221.936 239.988,221.051 240.013 C 220.803 240.020,220.918 240.267,221.307 240.562 M191.435 243.700 C 190.214 245.580,189.975 246.107,190.754 245.200 C 191.935 243.824,193.811 240.800,193.484 240.800 C 193.392 240.800,192.470 242.105,191.435 243.700 M130.330 244.300 C 130.761 244.905,131.529 245.760,132.037 246.200 C 132.545 246.640,132.272 246.145,131.432 245.100 C 129.774 243.039,129.063 242.522,130.330 244.300 M187.186 249.100 L 185.000 251.400 187.300 249.214 C 189.437 247.182,189.783 246.800,189.486 246.800 C 189.424 246.800,188.389 247.835,187.186 249.100 M134.800 249.220 C 135.570 249.880,136.740 250.790,137.400 251.244 L 138.600 252.069 137.600 251.198 C 137.050 250.719,136.020 249.804,135.311 249.164 C 134.602 248.524,133.882 248.005,133.711 248.011 C 133.540 248.017,134.030 248.561,134.800 249.220 M99.209 249.500 C 99.214 249.665,99.585 250.250,100.033 250.800 L 100.848 251.800 100.214 250.500 C 99.611 249.265,99.189 248.845,99.209 249.500 M139.400 252.611 C 139.840 252.969,140.740 253.526,141.400 253.850 C 142.522 254.401,142.548 254.397,141.800 253.789 C 141.360 253.431,140.460 252.874,139.800 252.550 C 138.678 251.999,138.652 252.003,139.400 252.611 M181.400 253.200 C 180.300 253.852,179.548 254.389,179.729 254.393 C 180.120 254.401,183.600 252.396,183.600 252.162 C 183.600 251.906,183.511 251.948,181.400 253.200 M102.200 254.400 C 102.541 255.060,102.911 255.600,103.021 255.600 C 103.131 255.600,102.941 255.060,102.600 254.400 C 102.259 253.740,101.889 253.200,101.779 253.200 C 101.669 253.200,101.859 253.740,102.200 254.400 M215.800 256.000 C 215.459 256.660,215.269 257.200,215.379 257.200 C 215.489 257.200,215.859 256.660,216.200 256.000 C 216.541 255.340,216.731 254.800,216.621 254.800 C 216.511 254.800,216.141 255.340,215.800 256.000 M173.400 256.400 C 172.896 256.617,172.822 256.744,173.200 256.744 C 173.530 256.744,174.160 256.589,174.600 256.400 C 175.104 256.183,175.178 256.056,174.800 256.056 C 174.470 256.056,173.840 256.211,173.400 256.400 M150.200 257.200 C 151.396 257.714,152.395 257.714,151.600 257.200 C 151.270 256.987,150.640 256.822,150.200 256.834 L 149.400 256.856 150.200 257.200 M169.800 257.200 L 169.000 257.544 169.800 257.544 C 170.240 257.544,170.960 257.389,171.400 257.200 L 172.200 256.856 171.400 256.856 C 170.960 256.856,170.240 257.011,169.800 257.200 M104.692 258.200 C 105.143 258.860,106.265 260.210,107.184 261.200 C 108.542 262.662,108.467 262.512,106.783 260.400 C 104.390 257.399,103.509 256.472,104.692 258.200 M154.600 257.991 C 155.800 258.305,160.681 258.529,160.367 258.255 C 160.275 258.175,158.670 258.013,156.800 257.894 C 154.844 257.769,153.910 257.810,154.600 257.991 M163.400 258.000 L 161.800 258.286 163.200 258.308 C 163.970 258.320,165.500 258.190,166.600 258.018 L 168.600 257.707 166.800 257.710 C 165.810 257.712,164.280 257.842,163.400 258.000 M213.093 260.403 C 212.518 261.281,212.117 262.000,212.203 262.000 C 212.513 262.000,214.507 259.174,214.325 258.992 C 214.223 258.889,213.668 259.524,213.093 260.403 M112.000 266.389 C 115.100 269.367,119.461 272.682,122.000 273.992 C 123.622 274.829,122.801 274.194,119.396 271.978 C 117.638 270.834,114.490 268.374,112.400 266.511 L 108.600 263.124 112.000 266.389 M206.800 267.888 C 204.006 270.726,203.471 271.383,205.200 269.852 C 207.444 267.865,211.516 263.580,211.131 263.611 C 211.059 263.616,209.110 265.541,206.800 267.888 M199.426 274.038 C 197.900 275.117,196.785 276.000,196.948 276.000 C 197.361 276.000,201.895 272.893,202.199 272.402 C 202.550 271.834,202.507 271.859,199.426 274.038 M194.300 277.026 C 193.255 277.570,192.400 278.105,192.400 278.214 C 192.400 278.324,193.300 277.957,194.400 277.400 C 195.500 276.843,196.400 276.300,196.400 276.193 C 196.400 275.929,196.436 275.914,194.300 277.026 M133.600 279.600 C 133.930 279.813,134.470 279.988,134.800 279.988 C 135.333 279.988,135.333 279.945,134.800 279.600 C 134.470 279.387,133.930 279.212,133.600 279.212 C 133.067 279.212,133.067 279.255,133.600 279.600 M142.400 282.000 C 142.950 282.176,143.760 282.320,144.200 282.320 C 144.833 282.320,144.792 282.254,144.000 282.000 C 143.450 281.824,142.640 281.680,142.200 281.680 C 141.567 281.680,141.608 281.746,142.400 282.000 M180.600 282.000 C 180.096 282.217,180.022 282.344,180.400 282.344 C 180.730 282.344,181.360 282.189,181.800 282.000 C 182.304 281.783,182.378 281.656,182.000 281.656 C 181.670 281.656,181.040 281.811,180.600 282.000 M146.600 282.800 C 147.040 282.989,147.850 283.138,148.400 283.132 L 149.400 283.120 148.400 282.800 C 147.850 282.624,147.040 282.474,146.600 282.468 L 145.800 282.456 146.600 282.800 M176.600 282.800 C 175.522 283.074,175.502 283.106,176.400 283.113 C 176.950 283.117,177.850 282.976,178.400 282.800 C 179.744 282.369,178.292 282.369,176.600 282.800 M151.000 283.600 C 151.440 283.789,152.160 283.938,152.600 283.932 C 153.243 283.923,153.204 283.857,152.400 283.600 C 151.032 283.162,149.981 283.162,151.000 283.600 M169.400 283.600 C 167.480 283.863,167.464 283.876,169.000 283.908 C 169.880 283.926,171.410 283.797,172.400 283.620 C 174.770 283.199,172.441 283.183,169.400 283.600 " stroke="none" fill="#848484" fill-rule="evenodd"></path><path id="path3" d="M294.711 87.893 C 295.651 87.978,297.091 87.977,297.911 87.891 C 298.730 87.805,297.960 87.736,296.200 87.737 C 294.440 87.739,293.770 87.809,294.711 87.893 M290.000 88.400 C 289.196 88.657,289.157 88.723,289.800 88.732 C 290.240 88.738,290.960 88.589,291.400 88.400 C 292.419 87.962,291.368 87.962,290.000 88.400 M301.000 88.400 C 301.440 88.589,302.070 88.744,302.400 88.744 C 302.778 88.744,302.704 88.617,302.200 88.400 C 301.760 88.211,301.130 88.056,300.800 88.056 C 300.422 88.056,300.496 88.183,301.000 88.400 M240.600 88.694 C 244.523 88.794,245.491 88.938,245.900 89.485 C 246.175 89.852,246.400 89.975,246.400 89.756 C 246.400 88.639,245.323 88.402,240.620 88.486 L 235.800 88.572 240.600 88.694 M272.972 88.693 C 276.881 88.806,277.576 88.925,277.750 89.512 C 277.903 90.027,277.933 89.999,277.872 89.400 C 277.796 88.651,277.489 88.599,273.094 88.580 L 268.399 88.560 272.972 88.693 M284.087 91.500 C 283.130 92.435,283.114 92.481,283.981 91.806 C 285.688 90.476,285.769 90.400,285.486 90.400 C 285.336 90.400,284.706 90.895,284.087 91.500 M308.604 92.600 C 310.207 94.826,310.650 95.239,309.757 93.673 C 309.341 92.943,308.652 92.043,308.226 91.673 C 307.776 91.282,307.934 91.669,308.604 92.600 M280.662 94.731 C 279.760 95.728,279.831 96.533,280.900 97.438 C 281.799 98.199,281.799 98.199,281.100 97.369 C 280.226 96.330,280.216 95.666,281.062 94.731 C 281.426 94.329,281.634 94.000,281.524 94.000 C 281.414 94.000,281.026 94.329,280.662 94.731 M293.300 96.276 C 293.685 96.376,294.315 96.376,294.700 96.276 C 295.085 96.175,294.770 96.093,294.000 96.093 C 293.230 96.093,292.915 96.175,293.300 96.276 M296.400 96.156 C 296.400 96.242,297.017 96.385,297.772 96.473 C 298.527 96.561,299.056 96.490,298.948 96.316 C 298.755 96.003,296.400 95.855,296.400 96.156 M300.514 97.720 C 301.001 98.226,301.474 98.587,301.564 98.523 C 301.798 98.355,300.342 96.800,299.952 96.800 C 299.774 96.800,300.027 97.214,300.514 97.720 M288.380 98.666 C 287.488 99.472,286.573 100.507,286.347 100.966 C 286.120 101.424,286.407 101.222,286.984 100.516 C 287.561 99.810,288.610 98.777,289.316 98.221 C 290.022 97.664,290.466 97.207,290.301 97.204 C 290.137 97.202,289.272 97.859,288.380 98.666 M283.687 100.605 C 284.504 101.460,285.238 102.079,285.317 101.980 C 285.397 101.881,284.728 101.181,283.831 100.425 L 282.200 99.050 283.687 100.605 M301.800 101.600 C 301.800 102.878,301.932 103.716,302.094 103.462 C 302.256 103.208,302.388 102.370,302.388 101.600 C 302.388 100.830,302.256 99.992,302.094 99.738 C 301.932 99.484,301.800 100.322,301.800 101.600 M299.778 106.825 C 299.367 107.278,297.809 108.555,296.316 109.662 C 293.267 111.923,292.579 112.777,295.460 110.725 C 297.507 109.267,301.139 106.041,300.762 106.016 C 300.631 106.007,300.188 106.371,299.778 106.825 M308.502 109.500 C 307.579 110.765,305.453 112.880,303.777 114.200 C 299.593 117.496,298.757 118.228,300.400 117.157 C 304.499 114.485,308.424 110.680,310.157 107.700 C 310.849 106.509,310.053 107.375,308.502 109.500 M290.200 114.235 L 289.000 115.266 290.300 114.406 C 291.015 113.933,291.600 113.468,291.600 113.373 C 291.600 113.073,291.431 113.178,290.200 114.235 M286.213 117.292 C 284.004 119.260,281.595 122.441,281.604 123.378 C 281.606 123.610,282.137 122.878,282.783 121.750 C 283.430 120.623,285.093 118.689,286.479 117.452 C 287.866 116.215,288.901 115.203,288.780 115.202 C 288.659 115.201,287.504 116.141,286.213 117.292 M293.392 121.916 C 292.728 122.512,291.920 123.360,291.597 123.800 C 291.273 124.240,291.862 123.793,292.904 122.806 C 294.625 121.177,294.994 120.768,294.700 120.816 C 294.645 120.825,294.056 121.320,293.392 121.916 M290.740 125.200 C 290.707 125.420,290.662 125.825,290.640 126.100 C 290.609 126.483,293.003 126.647,300.900 126.800 C 306.566 126.910,311.201 126.865,311.200 126.700 C 311.200 126.535,306.598 126.400,300.973 126.400 C 290.928 126.400,290.751 126.386,291.000 125.600 C 291.140 125.160,291.152 124.800,291.027 124.800 C 290.902 124.800,290.773 124.980,290.740 125.200 M159.300 127.494 C 160.345 127.576,162.055 127.576,163.100 127.494 C 164.145 127.412,163.290 127.344,161.200 127.344 C 159.110 127.344,158.255 127.412,159.300 127.494 M280.578 131.000 L 280.600 134.600 295.600 134.607 L 310.600 134.614 295.715 134.502 L 280.830 134.390 280.692 130.895 L 280.555 127.400 280.578 131.000 M152.711 127.893 C 153.651 127.978,155.091 127.977,155.911 127.891 C 156.730 127.805,155.960 127.736,154.200 127.737 C 152.440 127.739,151.770 127.809,152.711 127.893 M167.100 127.893 C 168.035 127.977,169.565 127.977,170.500 127.893 C 171.435 127.809,170.670 127.740,168.800 127.740 C 166.930 127.740,166.165 127.809,167.100 127.893 M311.340 130.800 C 311.340 132.670,311.409 133.435,311.493 132.500 C 311.577 131.565,311.577 130.035,311.493 129.100 C 311.409 128.165,311.340 128.930,311.340 130.800 M146.500 128.676 C 146.885 128.776,147.515 128.776,147.900 128.676 C 148.285 128.575,147.970 128.493,147.200 128.493 C 146.430 128.493,146.115 128.575,146.500 128.676 M175.300 128.676 C 175.685 128.776,176.315 128.776,176.700 128.676 C 177.085 128.575,176.770 128.493,176.000 128.493 C 175.230 128.493,174.915 128.575,175.300 128.676 M142.800 129.200 C 142.008 129.454,141.967 129.520,142.600 129.520 C 143.040 129.520,143.850 129.376,144.400 129.200 C 145.192 128.946,145.233 128.880,144.600 128.880 C 144.160 128.880,143.350 129.024,142.800 129.200 M178.800 129.200 C 179.350 129.376,180.250 129.517,180.800 129.513 C 181.698 129.506,181.678 129.474,180.600 129.200 C 178.908 128.769,177.456 128.769,178.800 129.200 M182.400 129.982 C 182.730 130.205,183.345 130.391,183.767 130.394 C 184.790 130.402,184.471 130.173,183.000 129.844 C 182.124 129.648,181.962 129.685,182.400 129.982 M185.200 130.782 C 185.530 131.005,186.145 131.191,186.567 131.194 C 187.590 131.202,187.271 130.973,185.800 130.644 C 184.924 130.448,184.762 130.485,185.200 130.782 M188.000 131.582 C 188.330 131.805,188.945 131.991,189.367 131.994 C 190.390 132.002,190.071 131.773,188.600 131.444 C 187.724 131.248,187.562 131.285,188.000 131.582 M193.840 133.725 C 195.841 134.699,198.361 135.985,199.440 136.584 C 200.518 137.183,201.046 137.383,200.614 137.029 C 199.596 136.196,192.501 132.575,191.200 132.225 C 190.650 132.077,191.838 132.752,193.840 133.725 M128.400 133.800 C 127.850 134.114,127.580 134.372,127.800 134.372 C 128.020 134.372,128.650 134.114,129.200 133.800 C 129.750 133.486,130.020 133.228,129.800 133.228 C 129.580 133.228,128.950 133.486,128.400 133.800 M262.666 133.771 C 262.478 134.263,261.396 134.400,256.917 134.501 L 251.400 134.625 256.851 134.712 C 262.058 134.796,264.094 134.360,263.106 133.373 C 262.992 133.259,262.794 133.438,262.666 133.771 M122.795 136.654 C 120.652 138.073,119.137 139.291,120.400 138.579 C 122.215 137.557,125.671 135.200,125.357 135.200 C 125.155 135.200,124.002 135.854,122.795 136.654 M205.269 140.672 C 206.001 141.262,207.152 142.207,207.827 142.772 C 208.502 143.338,208.068 142.855,206.862 141.700 C 205.657 140.545,204.506 139.600,204.305 139.600 C 204.103 139.600,204.537 140.083,205.269 140.672 M114.791 142.431 L 112.200 144.863 114.900 142.560 C 117.342 140.478,117.826 140.000,117.491 140.000 C 117.432 140.000,116.217 141.094,114.791 142.431 M211.397 146.500 C 212.472 147.765,213.423 148.800,213.510 148.800 C 213.783 148.800,211.329 145.836,210.364 145.000 C 209.856 144.560,210.321 145.235,211.397 146.500 M110.008 146.592 C 109.041 147.577,108.329 148.441,108.425 148.513 C 108.521 148.584,109.390 147.778,110.357 146.721 C 112.571 144.300,112.341 144.214,110.008 146.592 M106.155 151.081 C 105.307 152.116,104.822 152.834,105.077 152.676 C 105.621 152.340,108.155 149.200,107.882 149.200 C 107.780 149.200,107.003 150.047,106.155 151.081 M103.928 153.900 C 103.192 154.765,101.319 157.953,101.872 157.400 C 102.372 156.900,104.818 153.200,104.648 153.200 C 104.580 153.200,104.256 153.515,103.928 153.900 M158.300 153.897 C 159.895 153.973,162.505 153.973,164.100 153.897 C 165.695 153.821,164.390 153.759,161.200 153.759 C 158.010 153.759,156.705 153.821,158.300 153.897 M150.200 154.800 C 149.181 155.238,150.232 155.238,151.600 154.800 C 152.404 154.543,152.443 154.477,151.800 154.468 C 151.360 154.462,150.640 154.611,150.200 154.800 M170.033 154.544 C 170.125 154.623,171.100 154.791,172.200 154.918 C 173.487 155.067,173.915 155.026,173.400 154.803 C 172.636 154.472,169.686 154.245,170.033 154.544 M218.278 156.995 C 218.644 157.762,219.014 158.319,219.101 158.232 C 219.284 158.049,218.070 155.600,217.796 155.600 C 217.695 155.600,217.912 156.228,218.278 156.995 M178.800 157.200 C 180.010 157.839,181.180 158.362,181.400 158.362 C 181.620 158.362,180.810 157.839,179.600 157.200 C 178.390 156.561,177.220 156.038,177.000 156.038 C 176.780 156.038,177.590 156.561,178.800 157.200 M141.100 158.229 C 139.549 159.070,139.725 159.361,141.300 158.559 C 142.808 157.793,143.075 157.594,142.567 157.616 C 142.365 157.625,141.705 157.901,141.100 158.229 M184.400 160.269 C 185.170 160.885,186.855 162.471,188.145 163.794 L 190.490 166.200 188.598 163.934 C 187.558 162.688,185.873 161.101,184.853 160.408 C 183.322 159.367,183.243 159.343,184.400 160.269 M220.124 161.708 C 220.147 162.688,220.271 163.016,220.480 162.643 C 220.656 162.328,220.640 161.650,220.445 161.135 C 220.140 160.331,220.095 160.411,220.124 161.708 M134.454 163.274 C 133.076 164.635,131.572 166.300,131.110 166.974 C 130.648 167.648,130.443 168.020,130.653 167.800 C 135.756 162.469,137.305 160.800,137.149 160.800 C 137.044 160.800,135.832 161.913,134.454 163.274 M217.700 164.226 C 216.765 164.787,216.000 165.340,216.000 165.455 C 216.000 165.671,218.699 164.138,219.380 163.536 C 220.067 162.928,219.427 163.191,217.700 164.226 M96.650 166.791 C 95.747 169.047,95.887 169.383,96.837 167.242 C 97.266 166.275,97.545 165.412,97.458 165.325 C 97.371 165.238,97.008 165.898,96.650 166.791 M213.700 166.626 C 212.765 167.187,212.000 167.740,212.000 167.855 C 212.000 168.071,214.699 166.538,215.380 165.936 C 216.067 165.328,215.427 165.591,213.700 166.626 M208.100 170.046 C 206.737 170.919,206.295 171.506,207.500 170.843 C 208.418 170.339,209.856 169.227,209.600 169.219 C 209.490 169.216,208.815 169.588,208.100 170.046 M127.380 172.840 C 126.811 173.962,126.413 174.947,126.495 175.029 C 126.577 175.111,127.127 174.193,127.718 172.989 C 128.308 171.785,128.706 170.800,128.602 170.800 C 128.498 170.800,127.948 171.718,127.380 172.840 M203.281 172.972 C 201.525 174.214,201.097 174.745,202.600 173.818 C 204.678 172.535,205.391 171.999,204.989 172.020 C 204.775 172.030,204.007 172.459,203.281 172.972 M199.900 175.029 C 198.405 175.840,198.496 176.178,200.000 175.400 C 200.660 175.059,201.200 174.694,201.200 174.590 C 201.200 174.332,201.157 174.347,199.900 175.029 M93.246 176.467 C 93.221 176.834,93.096 177.464,92.970 177.867 C 92.752 178.562,92.763 178.563,93.197 177.887 C 93.448 177.496,93.573 176.866,93.473 176.487 C 93.311 175.868,93.288 175.866,93.246 176.467 M92.250 180.450 C 91.917 182.117,92.240 182.440,92.600 180.800 C 92.752 180.109,92.793 179.459,92.691 179.358 C 92.589 179.256,92.391 179.747,92.250 180.450 M91.654 183.200 C 91.619 183.750,91.496 184.650,91.383 185.200 L 91.177 186.200 91.607 185.215 C 91.843 184.674,91.965 183.774,91.878 183.215 L 91.720 182.200 91.654 183.200 M123.456 183.284 C 123.321 183.788,123.227 184.560,123.246 185.000 C 123.265 185.440,123.445 185.098,123.646 184.240 C 124.036 182.578,123.870 181.740,123.456 183.284 M90.893 188.400 C 90.893 189.170,90.975 189.485,91.076 189.100 C 91.176 188.715,91.176 188.085,91.076 187.700 C 90.975 187.315,90.893 187.630,90.893 188.400 M122.493 188.800 C 122.493 189.570,122.575 189.885,122.676 189.500 C 122.776 189.115,122.776 188.485,122.676 188.100 C 122.575 187.715,122.493 188.030,122.493 188.800 M121.853 192.436 C 121.714 193.131,121.625 194.623,121.656 195.750 C 121.703 197.458,121.763 197.267,122.018 194.600 C 122.341 191.219,122.274 190.332,121.853 192.436 M90.131 195.800 C 90.133 197.340,90.205 197.921,90.292 197.091 C 90.379 196.261,90.377 195.001,90.289 194.291 C 90.200 193.581,90.129 194.260,90.131 195.800 M89.764 205.800 C 89.763 209.540,89.823 211.124,89.897 209.320 C 89.971 207.515,89.972 204.455,89.898 202.520 C 89.825 200.584,89.764 202.060,89.764 205.800 M121.362 205.800 C 121.362 209.320,121.424 210.706,121.498 208.881 C 121.572 207.056,121.572 204.176,121.497 202.481 C 121.422 200.786,121.361 202.280,121.362 205.800 M90.131 215.800 C 90.133 217.340,90.205 217.921,90.292 217.091 C 90.379 216.261,90.377 215.001,90.289 214.291 C 90.200 213.581,90.129 214.260,90.131 215.800 M121.640 216.233 C 121.662 217.535,121.818 219.050,121.988 219.600 C 122.157 220.150,122.205 219.160,122.093 217.400 C 121.852 213.590,121.584 212.900,121.640 216.233 M122.493 222.800 C 122.493 223.570,122.575 223.885,122.676 223.500 C 122.776 223.115,122.776 222.485,122.676 222.100 C 122.575 221.715,122.493 222.030,122.493 222.800 M90.901 223.400 C 90.905 224.280,90.987 224.593,91.083 224.095 C 91.179 223.598,91.175 222.878,91.075 222.495 C 90.975 222.113,90.896 222.520,90.901 223.400 M91.473 227.200 C 91.604 228.190,91.776 229.075,91.856 229.167 C 92.157 229.514,91.928 226.964,91.590 226.200 C 91.353 225.666,91.314 225.998,91.473 227.200 M197.182 229.634 C 196.936 230.093,196.823 230.557,196.931 230.664 C 197.039 230.772,197.251 230.470,197.402 229.993 C 197.639 229.248,197.921 229.145,199.401 229.263 C 200.348 229.338,201.040 229.265,200.938 229.100 C 200.499 228.389,197.630 228.797,197.182 229.634 M92.244 231.000 C 92.573 232.471,92.802 232.790,92.794 231.767 C 92.791 231.345,92.605 230.730,92.382 230.400 C 92.085 229.962,92.048 230.124,92.244 231.000 M208.000 232.984 C 208.000 233.094,208.720 233.551,209.600 234.000 C 210.480 234.449,211.200 234.726,211.200 234.616 C 211.200 234.506,210.480 234.049,209.600 233.600 C 208.720 233.151,208.000 232.874,208.000 232.984 M126.400 236.553 C 126.400 236.982,127.590 239.200,127.821 239.200 C 127.931 239.200,127.723 238.615,127.359 237.900 C 126.617 236.440,126.400 236.136,126.400 236.553 M215.600 236.987 C 215.600 237.097,216.500 237.643,217.600 238.200 C 218.700 238.757,219.600 239.123,219.600 239.013 C 219.600 238.903,218.700 238.357,217.600 237.800 C 216.500 237.243,215.600 236.877,215.600 236.987 M193.665 239.017 C 192.995 240.488,193.123 240.802,193.847 239.465 C 194.186 238.840,194.388 238.254,194.296 238.163 C 194.205 238.071,193.921 238.456,193.665 239.017 M190.767 244.100 C 190.280 244.815,188.512 246.840,186.840 248.600 L 183.800 251.799 186.733 249.000 C 189.302 246.548,192.393 242.800,191.846 242.800 C 191.741 242.800,191.255 243.385,190.767 244.100 M130.806 244.200 C 131.732 245.554,135.733 249.615,137.000 250.486 C 137.660 250.940,137.262 250.469,136.117 249.439 C 134.971 248.409,133.184 246.629,132.146 245.483 C 131.108 244.338,130.505 243.760,130.806 244.200 M97.978 247.742 C 98.462 249.016,100.393 252.400,100.635 252.400 C 100.798 252.400,98.082 247.152,97.740 246.808 C 97.636 246.703,97.743 247.123,97.978 247.742 M101.149 253.400 C 101.365 253.840,101.834 254.560,102.193 255.000 L 102.844 255.800 102.451 255.000 C 102.235 254.560,101.766 253.840,101.407 253.400 L 100.756 252.600 101.149 253.400 M140.800 252.996 C 140.800 253.270,143.249 254.484,143.432 254.301 C 143.519 254.214,142.962 253.844,142.195 253.478 C 141.428 253.112,140.800 252.895,140.800 252.996 M176.000 255.200 C 175.010 255.615,174.403 255.965,174.651 255.978 C 175.218 256.006,178.000 254.857,178.000 254.595 C 178.000 254.348,178.112 254.314,176.000 255.200 M215.800 256.800 C 215.459 257.460,215.269 258.000,215.379 258.000 C 215.489 258.000,215.859 257.460,216.200 256.800 C 216.541 256.140,216.731 255.600,216.621 255.600 C 216.511 255.600,216.141 256.140,215.800 256.800 M148.600 256.400 C 149.040 256.589,149.760 256.738,150.200 256.732 C 150.843 256.723,150.804 256.657,150.000 256.400 C 148.632 255.962,147.581 255.962,148.600 256.400 M167.400 257.200 L 165.400 257.474 167.200 257.531 C 168.190 257.562,169.270 257.413,169.600 257.200 C 169.930 256.987,170.020 256.838,169.800 256.869 C 169.580 256.900,168.500 257.049,167.400 257.200 M153.300 257.476 C 153.685 257.576,154.315 257.576,154.700 257.476 C 155.085 257.375,154.770 257.293,154.000 257.293 C 153.230 257.293,152.915 257.375,153.300 257.476 M158.313 257.895 C 159.476 257.976,161.276 257.976,162.313 257.893 C 163.351 257.811,162.400 257.745,160.200 257.746 C 158.000 257.747,157.151 257.814,158.313 257.895 M213.785 260.100 C 213.168 261.035,212.920 261.589,213.232 261.331 C 213.833 260.834,215.364 258.400,215.076 258.400 C 214.983 258.400,214.402 259.165,213.785 260.100 M106.008 260.233 C 106.013 260.435,106.841 261.500,107.849 262.600 L 109.681 264.600 107.960 262.400 C 107.013 261.190,106.185 260.125,106.119 260.033 C 106.054 259.942,106.004 260.032,106.008 260.233 M210.434 264.553 L 209.469 265.800 210.613 264.712 C 211.243 264.114,211.677 263.553,211.579 263.465 C 211.480 263.377,210.965 263.867,210.434 264.553 M113.000 267.789 C 115.525 270.175,120.800 274.024,120.800 273.480 C 120.800 273.388,119.765 272.631,118.500 271.796 C 117.235 270.962,114.940 269.209,113.400 267.900 L 110.600 265.521 113.000 267.789 M205.800 269.484 C 203.606 271.584,203.137 272.137,204.600 270.900 C 206.929 268.931,209.940 265.980,209.578 266.020 C 209.480 266.030,207.780 267.590,205.800 269.484 M198.953 274.731 C 194.568 277.611,194.509 277.655,196.000 276.948 C 197.555 276.211,202.000 273.275,202.000 272.985 C 202.000 272.723,202.086 272.674,198.953 274.731 M140.400 282.000 C 140.950 282.176,141.760 282.320,142.200 282.320 C 142.833 282.320,142.792 282.254,142.000 282.000 C 141.450 281.824,140.640 281.680,140.200 281.680 C 139.567 281.680,139.608 281.746,140.400 282.000 M182.200 282.000 C 181.181 282.438,182.232 282.438,183.600 282.000 C 184.404 281.743,184.443 281.677,183.800 281.668 C 183.360 281.662,182.640 281.811,182.200 282.000 M143.633 282.547 C 143.725 282.628,144.520 282.804,145.400 282.938 C 146.515 283.107,146.758 283.071,146.200 282.819 C 145.432 282.471,143.290 282.244,143.633 282.547 M175.300 283.476 C 175.685 283.576,176.315 283.576,176.700 283.476 C 177.085 283.375,176.770 283.293,176.000 283.293 C 175.230 283.293,174.915 283.375,175.300 283.476 M153.913 284.295 C 155.076 284.376,156.876 284.376,157.913 284.293 C 158.951 284.211,158.000 284.145,155.800 284.146 C 153.600 284.147,152.751 284.214,153.913 284.295 M164.300 284.295 C 165.455 284.376,167.345 284.376,168.500 284.295 C 169.655 284.214,168.710 284.148,166.400 284.148 C 164.090 284.148,163.145 284.214,164.300 284.295 " stroke="none" fill="#585858" fill-rule="evenodd"></path><path id="path4" d="M311.301 101.000 C 311.305 101.880,311.387 102.193,311.483 101.695 C 311.579 101.198,311.575 100.478,311.475 100.095 C 311.375 99.713,311.296 100.120,311.301 101.000 M90.093 199.600 C 90.093 200.370,90.175 200.685,90.276 200.300 C 90.376 199.915,90.376 199.285,90.276 198.900 C 90.175 198.515,90.093 198.830,90.093 199.600 M186.987 248.900 L 184.600 251.400 187.100 249.013 C 189.422 246.795,189.783 246.400,189.487 246.400 C 189.426 246.400,188.301 247.525,186.987 248.900 M160.305 284.283 C 160.802 284.379,161.522 284.375,161.905 284.275 C 162.287 284.175,161.880 284.096,161.000 284.101 C 160.120 284.105,159.807 284.187,160.305 284.283 " stroke="none" fill="#747474" fill-rule="evenodd"></path></g></svg>